<?xml version="1.0" encoding="utf-8"?>
<!-- Generator: Adobe Illustrator 25.4.1, SVG Export Plug-In . SVG Version: 6.00 Build 0)  -->
<svg version="1.1" id="head" xmlns="http://www.w3.org/2000/svg" xmlns:xlink="http://www.w3.org/1999/xlink" x="0px" y="0px"
	 viewBox="0 0 569.9 557.7" style="enable-background:new 0 0 569.9 557.7;" xml:space="preserve">
<style type="text/css">
	.st0{fill:#FFB872;}
	.st1{fill:#E3813A;}
	.st2{fill:#FFF4E3;}
	.st3{fill:#E0B68F;}
	.st4{fill:#FFFFFF;}
	.st5{fill:#5A2306;}
	.st6{fill:none;stroke:#5A2306;stroke-width:11.0782;stroke-linecap:round;stroke-miterlimit:10;}
	.st7{fill:#79B0FB;}
	.st8{fill:#4069ED;}
</style>
<path class="st0" d="M68.6,427.1c0,0,186.3,115.3,228.2,105.3c7.1-3.2,177.9-63.5,222.7-105.8c-12.5-15.1-92.8-158.1-92.8-158.1
	C444.8,237,542.6,35.2,543,31.4c-3-2-249.7,236.9-249.7,236.9C281.4,264.4,48.5,28,44.8,31c-2.1,9.7,112.3,237.5,112.3,237.5
	L68.6,427.1z"/>
<path class="st1" d="M479.6,170.3c0,0-26.7,24-116.8,43.1l-6.4,10.1c19.3,18.6,39.8,28.3,64.8,33.1l32-57.7l-30.5,75.2L304,277.6
	l67.2-80.1l107.6-81.7L479.6,170.3z"/>
<path class="st1" d="M101,170.3c0,0,26.7,24,116.8,43.1l7.9,7.4c-47.6,13-74.8,19.3-76.5,21.4L127.3,199l30.5,75.2l118.7,3.4
	l-67.2-80.1l-107.6-81.7L101,170.3z"/>
<path class="st2" d="M493.2,394.2c0,0,69-70.7,49.3-97.4c-4.3-0.6-32.6,23-32.6,23s47.3-57.8,35.4-82.7c-5.7-5.3-21.5,11-21.5,11
	c6.2-14.2,35.5-90.7,21.5-212.3c-2.4,0.2-118.6,232.6-118.6,232.6L493.2,394.2z"/>
<path class="st2" d="M90.7,394.2c0,0-69-70.7-49.3-97.4c4.3-0.6,32.6,23,32.6,23s-47.3-57.8-35.4-82.7c5.7-5.3,21.5,11,21.5,11
	c-6.2-14.2-35.5-90.7-21.5-212.3c2.4,0.2,118.6,232.6,118.6,232.6L90.7,394.2z"/>
<path class="st3" d="M492.4,283.8c4.2-68.7,18.4-159.4,42.9-233.6l-112.6,224c0,0,90.1,192.9,75.5,100.4c-0.7-4.3,1.2-10.5,2-14.7
	c1.1-6,2.4-12,4.1-17.8c3.5-11.9,9.3-23.2,16.9-33.1c-6.5,4.4-13.1,8.8-18.5,14.4s-9.7,12.7-10.7,20.5c-2.4-12.7,1.8-25.4,5.3-37.5
	c4-13.9,8.7-27.7,15.3-40.6c1.7-3.3,3.5-6.5,5.5-9.6c1.5-2.3,3.5-6.4,5.8-7.9C507,259.3,497.4,271.3,492.4,283.8z"/>
<path class="st3" d="M87.5,282.7C83.3,214,69.3,123.4,45.1,49.1l111.3,224c0,0-89.1,192.9-74.7,100.4c0.7-4.3-1.2-10.5-1.9-14.7
	c-1-6-2.3-12-4-17.8c-3.5-11.9-9.2-23.2-16.7-33.1c6.4,4.4,12.9,8.8,18.3,14.4S87,335,88,342.8c2.4-12.7-1.8-25.4-5.2-37.5
	c-3.9-13.9-8.6-27.7-15.2-40.6c-1.7-3.3-3.4-6.5-5.4-9.6c-1.5-2.3-3.4-6.4-5.8-7.9C73.1,258.3,82.6,270.2,87.5,282.7z"/>
<path class="st4" d="M38.5,237.2c-1.8,45.9,40.4,84.7,40.4,84.7s-43.3-78.7-13.6-68.9c5.7-5.3-24-93.7-15.5-202.9
	C39,29.1,39.1,36,38.5,35.9C24.5,157.6,53.8,234.1,60,248.2C60,248.2,44.2,231.9,38.5,237.2z"/>
<path class="st4" d="M62.3,310.6c0.1,0,0.1,0,0.2,0c-8.3-6.6-18.6-14.1-21.1-13.7c-19.8,26.7,49.3,97.4,49.3,97.4l3.2-6.1
	C74.9,365.1,49.2,328.2,62.3,310.6z"/>
<path class="st4" d="M546.6,237.2c1.8,45.9-40.4,84.7-40.4,84.7s43.3-78.7,13.6-68.9c-5.7-5.3,24-93.7,15.5-202.9
	c10.8-21,10.7-14.1,11.3-14.2c14,121.6-15.3,198.1-21.5,212.3C525.1,248.2,540.9,231.9,546.6,237.2z"/>
<path class="st4" d="M522.9,310.6c-0.1,0-0.1,0-0.2,0c8.3-6.6,18.6-14.1,21.1-13.7c19.8,26.7-49.3,97.4-49.3,97.4l-3.2-6.1
	C510.2,365.1,535.9,328.2,522.9,310.6z"/>
<g>
	<path class="st5" d="M85.1,395.1c-11.3-8.1-21.2-18.2-29.1-29.5c-7.9-11.3-13.9-23.8-17.7-36.9c-1.9-6.6-3.3-13.3-3.6-20.4
		c-0.1-1.8-0.1-3.6,0.1-5.5c0.1-1,0.2-1.9,0.4-3c0.2-1,0.5-2.1,1-3.4c0.3-0.6,0.7-1.4,1.2-2.1c0.2-0.2,0.4-0.4,0.5-0.6l0.3-0.3
		c0.2-0.2,0.4-0.4,0.7-0.5c0.9-0.7,1.9-0.9,2.6-1.1c1.5-0.2,2.4,0,3.1,0.2c0.7,0.2,1.3,0.4,1.8,0.7c2,0.9,3.5,1.9,5,2.9
		c2.9,2,5.4,4.2,8,6.3c2.5,2.2,4.9,4.4,7.3,6.6c4.8,4.5,9.4,9.1,14,13.8l0,0l-4.9,4.8c-7.5-7.8-14.7-16.1-21-25
		c-6.3-8.9-11.9-18.5-16-28.8c-2-5.2-3.7-10.5-4.8-16.1c-0.5-2.8-0.9-5.6-1.1-8.5c-0.1-2.9-0.1-5.8,0.4-9c0.2-0.8,0.3-1.6,0.7-2.6
		c0.2-0.5,0.3-1,0.8-1.7c0.1-0.2,0.3-0.5,0.5-0.7c0,0,0.1-0.1,0.2-0.2l0.3-0.3l0.3-0.2l0.1-0.1c0.4-0.3,0.8-0.5,1.2-0.7
		c0.8-0.4,1.6-0.5,2.3-0.6c0.3,0,0.7,0,1,0c0.3,0,0.6,0,0.9,0c1.1,0.1,2,0.4,2.9,0.6c1.7,0.6,3.1,1.3,4.4,2c1.3,0.8,2.5,1.6,3.7,2.4
		c4.6,3.4,8.6,7.4,12.2,11.6l0,0l-5.5,4c-4.1-4.9-7.1-10.5-9.4-16.3c-2.3-5.8-4-11.8-5.6-17.8c-3.2-12-5.4-24-7.1-36.2
		c-3.3-24.2-4.6-48.6-4.8-72.9c-0.1-12.1,0-24.3,0.4-36.4c0.2-6.1,0.4-12.1,0.7-18.2c0.1-3,0.3-6.1,0.5-9.1l0.3-4.5l0.2-2.3
		c0.1-0.8,0.2-1.6,0.4-2.4c0.3-1.6,0.7-3.3,1.5-5c0.4-0.8,0.9-1.7,1.7-2.5c0.7-0.8,1.8-1.6,3.1-1.9c1.3-0.3,2.6-0.1,3.7,0.3
		c0.6,0.2,1.1,0.5,1.6,0.8c0.1,0.1,0.3,0.2,0.4,0.3l0.2,0.2l0.4,0.4l3.3,3.2l13,12.6l26,25.3c69.2,67.6,138.5,135.1,208.3,202
		c3.4,3.2,3.5,8.6,0.2,12c-3.2,3.4-8.6,3.5-12,0.2c-0.1-0.1-0.2-0.2-0.3-0.3C219.3,214.6,152.2,145,84.8,75.6l-25.3-26L46.8,36.7
		l-3.2-3.2c-0.7-0.7-0.6-0.7-1-1c-0.3-0.2-0.6-0.2-0.8-0.2c-0.2,0-0.4,0.1-0.7,0.4C41,33,40.7,33.5,40.5,34
		c-0.4,1.1-0.5,2.4-0.6,3.8c0,0.7,0,1.4,0,2.1l-0.1,2.3l-0.2,4.5c-0.1,3-0.2,6-0.3,9c-0.2,6-0.2,12-0.2,18.1c0,12,0.3,24.1,0.9,36.1
		c1.1,24,3.3,48,7.1,71.6c1.9,11.8,4.3,23.5,7.4,34.9c0.8,2.9,1.6,5.7,2.5,8.5l2.8,8.3l2.8,8.3c0.9,2.8,1.9,5.5,2.7,8.4l0.4,1.4
		c0.5,1.7-0.5,3.6-2.2,4.1c-1.5,0.4-3-0.2-3.7-1.4l0,0c-3.8-3.5-7.7-6.9-11.9-9.7c-2-1.4-4.2-2.6-6-3.2c-0.4-0.1-0.8-0.2-1-0.2
		c-0.1,0-0.1,0-0.1,0c0,0,0,0,0,0c0.1,0,0.1,0,0.4-0.1c0.1-0.1,0.2-0.1,0.3-0.2l0.2-0.2c0.1-0.1,0.1-0.1,0.2-0.2l0.1-0.1
		c0.1-0.1,0.2-0.3,0.2-0.3c0.1-0.2,0-0.1,0,0.1c-0.1,0.3-0.2,0.8-0.3,1.3c-0.4,2.1-0.5,4.6-0.3,7c0.1,2.4,0.4,4.9,0.9,7.4
		c0.9,5,2.4,9.9,4.3,14.7c3.8,9.6,8.8,18.8,14.7,27.4c5.9,8.7,12.5,16.9,19.6,24.7l0.1,0.1c1.3,1.4,1.2,3.6-0.2,4.9
		c-1.4,1.2-3.5,1.2-4.8-0.1l0,0c-4.7-4.4-9.6-8.6-14.5-12.7c-2.5-2-5-4-7.5-6c-2.5-1.9-5.1-3.8-7.6-5.3c-1.2-0.8-2.6-1.5-3.5-1.8
		c-0.2-0.1-0.4-0.1-0.5-0.1c0,0,0,0.1,0.7,0c0.3,0,0.9-0.2,1.5-0.6c0.1-0.1,0.3-0.2,0.4-0.3l0.1-0.1c0.1,0,0.1-0.1,0.1-0.2
		c0.1-0.1,0.1-0.1,0.1,0c-0.1,0.2-0.2,0.7-0.2,1.3c-0.1,0.6-0.1,1.2-0.1,1.9c0,1.3,0.1,2.8,0.2,4.2c0.7,5.8,2.3,11.8,4.4,17.6
		c4.2,11.6,10.4,22.4,18,31.9c7.6,9.5,16.8,17.7,27,24.1c4,2.5,5.2,7.7,2.7,11.7c-2.5,4-7.7,5.2-11.7,2.7
		C85.5,395.3,85.3,395.2,85.1,395.1L85.1,395.1z"/>
</g>
<g>
	<path class="st5" d="M489.6,381.1c10.2-6.4,19.4-14.5,27-24.1c7.6-9.5,13.8-20.4,18-31.9c2.1-5.8,3.7-11.8,4.4-17.6
		c0.2-1.4,0.2-2.9,0.2-4.2c0-0.7,0-1.3-0.1-1.9c-0.1-0.6-0.2-1.1-0.2-1.3c0-0.1,0-0.1,0.1,0c0,0,0.1,0.1,0.1,0.2l0.1,0.1
		c0.1,0.1,0.3,0.2,0.4,0.3c0.6,0.4,1.2,0.6,1.5,0.6c0.7,0.1,0.8,0,0.7,0c-0.1,0-0.2,0-0.5,0.1c-1,0.3-2.3,1.1-3.5,1.8
		c-2.5,1.6-5.1,3.4-7.6,5.3c-2.5,1.9-5,3.9-7.5,6c-4.9,4.1-9.8,8.3-14.5,12.7l0,0c-1.3,1.4-3.5,1.4-4.9,0c-1.3-1.3-1.4-3.4-0.1-4.8
		l0.1-0.1c7.1-7.8,13.7-16.1,19.6-24.7c5.9-8.6,11-17.8,14.7-27.4c1.9-4.8,3.4-9.7,4.3-14.7c0.5-2.5,0.8-5,0.9-7.4
		c0.1-2.4,0-4.9-0.3-7c-0.1-0.5-0.2-1-0.3-1.3c0-0.2-0.1-0.3,0-0.1c0,0,0.1,0.2,0.2,0.3l0.1,0.1c0.1,0.1,0.1,0.1,0.2,0.2l0.2,0.2
		c0.1,0.1,0.2,0.2,0.3,0.2c0.2,0.1,0.3,0.1,0.4,0.1c0,0,0,0,0,0c0,0-0.1,0-0.1,0c-0.2,0-0.6,0.1-1,0.2c-1.8,0.6-4,1.8-6,3.2
		c-4.1,2.8-8,6.2-11.9,9.7l0,0c-0.9,1.5-3,2-4.5,1.1c-1.3-0.8-1.9-2.3-1.4-3.7l0.4-1.4c0.9-2.9,1.8-5.6,2.7-8.4l2.8-8.3l2.8-8.3
		c0.9-2.8,1.7-5.6,2.5-8.5c3.1-11.4,5.5-23.1,7.4-34.9c3.8-23.6,6-47.6,7.1-71.6c0.6-12,0.9-24.1,0.9-36.1c0-6-0.1-12-0.2-18.1
		c-0.1-3-0.2-6-0.3-9l-0.2-4.5l-0.1-2.3c0-0.7,0-1.4,0-2.1c-0.1-1.4-0.2-2.7-0.6-3.8c-0.2-0.5-0.4-1-0.7-1.3
		c-0.3-0.3-0.5-0.4-0.7-0.4c-0.2,0-0.5,0-0.8,0.2c-0.3,0.2-0.3,0.3-1,1l-3.2,3.2l-12.7,12.9l-25.3,26
		c-67.4,69.4-134.5,139-201,209.2c-3.2,3.4-8.6,3.5-12,0.3c-3.4-3.2-3.5-8.6-0.3-12c0.1-0.1,0.2-0.2,0.3-0.3
		c69.8-67,139.1-134.4,208.3-202l26-25.3l13-12.6l3.3-3.2l0.4-0.4l0.2-0.2c0.1-0.1,0.3-0.2,0.4-0.3c0.5-0.4,1-0.6,1.6-0.8
		c1.1-0.4,2.4-0.6,3.7-0.3c1.3,0.3,2.4,1.1,3.1,1.9c0.8,0.8,1.2,1.7,1.7,2.5c0.8,1.7,1.2,3.4,1.5,5c0.1,0.8,0.3,1.6,0.4,2.4l0.2,2.3
		l0.3,4.5c0.2,3,0.4,6.1,0.5,9.1c0.3,6.1,0.5,12.1,0.7,18.2c0.3,12.1,0.5,24.3,0.4,36.4c-0.3,24.3-1.5,48.6-4.8,72.9
		c-1.7,12.1-3.9,24.2-7.1,36.2c-1.6,6-3.3,11.9-5.6,17.8c-2.4,5.8-5.3,11.4-9.4,16.3l-5.5-4l0,0c3.6-4.2,7.5-8.2,12.2-11.6
		c1.2-0.9,2.4-1.7,3.7-2.4c1.3-0.8,2.7-1.5,4.4-2c0.8-0.3,1.7-0.5,2.9-0.6c0.3,0,0.6,0,0.9,0c0.3,0,0.7,0,1,0
		c0.7,0.1,1.5,0.2,2.3,0.6c0.4,0.2,0.8,0.4,1.2,0.7l0.1,0.1l0.3,0.2l0.3,0.3c0.1,0.1,0.2,0.2,0.2,0.2c0.2,0.2,0.4,0.5,0.5,0.7
		c0.4,0.8,0.6,1.3,0.8,1.7c0.3,1,0.5,1.8,0.7,2.6c0.6,3.2,0.6,6.1,0.4,9c-0.2,2.9-0.5,5.7-1.1,8.5c-1.1,5.6-2.7,10.9-4.8,16.1
		c-4.1,10.4-9.7,19.9-16,28.8c-6.3,9-13.5,17.2-21,25l-4.9-4.8l0,0c4.6-4.7,9.2-9.3,14-13.8c2.4-2.2,4.8-4.5,7.3-6.6
		c2.5-2.2,5.1-4.3,8-6.3c1.5-1,2.9-2,5-2.9c0.5-0.2,1.1-0.5,1.8-0.7c0.7-0.2,1.6-0.4,3.1-0.2c0.7,0.1,1.7,0.4,2.6,1.1
		c0.2,0.2,0.4,0.3,0.7,0.5l0.3,0.3c0.2,0.2,0.4,0.4,0.5,0.6c0.6,0.8,1,1.5,1.2,2.1c0.5,1.3,0.8,2.4,1,3.4c0.2,1,0.3,2,0.4,3
		c0.1,1.9,0.1,3.7,0.1,5.5c-0.4,7.1-1.8,13.8-3.6,20.4c-3.8,13.1-9.8,25.6-17.7,36.9c-7.9,11.3-17.7,21.4-29.1,29.5l0,0
		c-3.8,2.7-9.1,1.9-11.8-1.9c-2.7-3.8-1.9-9.1,1.9-11.8C489.3,381.3,489.4,381.1,489.6,381.1z"/>
</g>
<path class="st5" d="M394.3,177.1c55.2-11.3,89-25.3,89-25.3s61.9-113.5,56-120.8C464.4,101.9,394.3,177.1,394.3,177.1z"/>
<path class="st5" d="M189.8,177.1c-55.2-11.3-89-25.3-89-25.3S38.9,38.3,44.8,31C119.8,101.9,189.8,177.1,189.8,177.1z"/>
<path class="st2" d="M519.5,426.6c-2,6.8-172.3,94.4-222.7,105.8c-43.7,9.2-228.2-105.3-228.2-105.3s15.9-47.8,26.8-39.2
	c10.9,8.6,56.4,22.5,67.9,19.9c31.2-28.2,88.3,9.7,100,16.9c17.5,10.8,42.6,10.2,59-1.1c1.2-0.8,2.4-1.6,3.6-2.3
	c-0.2,1.1-0.5,2.2-0.9,3.1c0,0,11.6,59.5-34,101.7c-5.3,17.3,182.9-87.8,193.1-101.2c-2.6-6.5-7.5-17.1-12.6-27.7
	c12-4,21.8-8.3,26.2-11.8C497.8,385.4,516.8,422.6,519.5,426.6z"/>
<path class="st3" d="M484.1,424.9C474,438.4,285.7,543.4,291,526.1c45.5-42.2,34-101.7,34-101.7c0.4-1,0.7-2,0.9-3.1
	c47.9-29.7,72-22,95.3-12.3c15.2-1.7,34.5-6.5,50.3-11.8C476.7,407.8,481.6,418.3,484.1,424.9z"/>
<path class="st1" d="M471.5,397.2c-15.7,5.3-35,10.1-50.3,11.8c-23.4-9.7-47.4-17.4-95.3,12.3c5.4-23.7,0.7-89.9-31.6-94.3
	c-23.4-3.7-55.7,34.9-111.7,42.9c17.6-58.6,125.7-62.7,130.7-62.6c44.5,0.6,140.3,53.9,140.3,53.9S462.9,379.4,471.5,397.2z"/>
<g>
	<path class="st5" d="M546.7,35.9L428.9,285.9c-2,4.2-7,6-11.3,4c-4.2-2-6-7-4-11.3c0-0.1,0.1-0.2,0.1-0.2L539.1,32.2
		c1.1-2.1,3.6-2.9,5.7-1.8C546.8,31.4,547.7,33.9,546.7,35.9z"/>
</g>
<path class="st5" d="M311.1,460.7c1.4-5.4-11.3-9.1-19.2-9.1c-7.9,0-20,3.6-18.7,9.1c1.7,6.7,12.6,12.5,18.7,12.5
	C298,473.2,309.5,466.9,311.1,460.7z"/>
<path class="st5" d="M321.9,420.4c7.5-8.6,28.5-28,59.3-34c31.5-6.1,41.2,10.4,44.2,16c3,5.7-5.4,8.9-9.6,6.4
	c-4-2.3-15.3-11.2-47.9-4c-4.7,1-17.8,6.9-22.6,9.2c-8.4,4-17.2,8.9-20.3,10.2C321.8,425.8,320,422.7,321.9,420.4z"/>
<path class="st5" d="M393.1,431.1c-3.9-3.3-12.8-4.1-16,1c-2,3.1,1.2,5.3,1.1,8.4c-0.1,1.7-0.7,3.3-1.6,4.8c0,0,0,0,0,0
	c-8,13.3-18.9,22.4-23.1,25.7l0,0c-1.6,1-2.2,3.1-1.3,4.9c0.9,1.7,2.9,2.5,4.7,1.8l0,0C375.2,471.7,404.8,443.5,393.1,431.1z"/>
<path class="st5" d="M463.9,366.9c-10,9.9-73.7,13.3-120.4-24.4c-15.2-12.3-27.6-32.6-23.7-52.3c4.2-21.6,39.8-39.4,44.6-39.6
	c57.6,3.3,77.7,4.5,101.6,32.3c15.4,18,22.4,42.7,16.6,63.5C481.2,351.3,467.8,363.4,463.9,366.9z"/>
<polygon class="st5" points="511.9,432.4 453.6,351.2 473.1,326.1 519.5,426.6 "/>
<g>
	<path class="st5" d="M118.4,330.8l-48.2,95.7l-1-5.8l0,0c1.2,2.1,2.9,4,4.8,5.8c1.8,1.7,3.9,3.3,6,4.7c4.2,2.9,8.6,5.7,13,8.5
		c8.9,5.4,18,10.5,27.2,15.5c4.6,2.5,9.3,4.9,13.9,7.3c4.7,2.4,9.4,4.7,14.1,7c9.4,4.6,18.9,9,28.4,13.4c19.1,8.7,38.4,17,57.8,24.7
		c9.7,3.9,19.5,7.6,29.3,11.1c4.9,1.7,9.8,3.3,14.7,4.8c2.4,0.7,4.9,1.4,7.3,1.9c1.2,0.3,2.4,0.5,3.5,0.7c1.2,0.2,2.1,0.3,2.9,0.3
		l0.6,0l0.8-0.1c0.5,0,1.1-0.2,1.6-0.3l1.7-0.4l1.8-0.4c2.4-0.6,4.8-1.3,7.3-2.1c4.9-1.5,9.8-3.2,14.7-5c9.8-3.6,19.5-7.5,29.1-11.5
		c9.6-4,19.3-8.1,28.9-12.3c9.6-4.2,19.2-8.5,28.7-12.8c19.1-8.7,38-17.7,56.7-27c9.4-4.7,18.7-9.5,27.8-14.5
		c9.1-5,18.3-10.2,26.3-16.3l0,0l-0.7,3.5l-49.9-97.2c-0.9-1.7-0.2-3.8,1.5-4.7s3.8-0.2,4.7,1.5c0,0,0,0,0,0l48.9,97.8l0,0.1
		c0.6,1.2,0.3,2.6-0.7,3.4l0,0c-4,3.7-8.3,7-12.7,10.1c-4.4,3.1-8.8,6-13.3,8.9c-9,5.7-18.1,11-27.4,16.1
		c-9.3,5.1-18.6,10.1-28,14.8c-9.4,4.8-18.9,9.4-28.4,14c-9.5,4.5-19.1,9-28.8,13.2c-9.7,4.3-19.3,8.5-29.1,12.4
		c-9.8,4-19.7,7.8-29.7,11.4c-5,1.8-10.1,3.5-15.2,5.1c-2.6,0.8-5.2,1.5-7.9,2.2l-2.1,0.5l-2.1,0.4c-0.8,0.1-1.4,0.3-2.3,0.3
		l-1.2,0.1l-1.3,0.1c-1.8,0-3.5-0.2-4.9-0.5c-1.5-0.3-2.9-0.6-4.2-0.9c-2.7-0.7-5.3-1.4-7.9-2.2c-5.2-1.6-10.2-3.4-15.2-5.2
		c-10-3.7-19.8-7.6-29.6-11.7c-19.5-8.2-38.7-17-57.7-26.2c-19-9.1-37.8-18.8-56.4-28.9c-9.3-5.1-18.5-10.3-27.5-16
		c-4.5-2.8-9-5.7-13.3-8.9c-4.3-3.2-8.7-6.2-13.7-9.3l0,0c-1.6-1.5-1.9-3.8-1-5.7l0.1-0.1l47.1-96.3c1.4-2.8,4.7-4,7.5-2.6
		C118.6,324.6,119.8,327.9,118.4,330.8C118.4,330.7,118.4,330.8,118.4,330.8z"/>
</g>
<g>
	<path class="st5" d="M154.8,284L38.4,35.5c-0.7-1.6-0.1-3.5,1.5-4.2c1.5-0.7,3.4-0.1,4.1,1.4l126.8,243.4c2.3,4.4,0.6,9.8-3.8,12.1
		c-4.4,2.3-9.8,0.6-12.1-3.8C154.9,284.2,154.9,284.1,154.8,284z"/>
</g>
<path class="st2" d="M370.5,260.1c-22.4,1.2-74.2-111.7-89-106.3c-18.9,7.4-15.2,48.6,11.1,73.4c-11-3.2-85.8-6.3-133.6,39.4
	C190.4,284.8,370.5,260.1,370.5,260.1z"/>
<path class="st3" d="M172.2,264.3c-117.9,38.5,142.5,17.1,189.8-8.1c0,0-52.8-71-63.9-79.8c8.2,47.4,46,70,49.8,79.5
	C198,218.6,172.2,264.3,172.2,264.3z"/>
<path class="st5" d="M262.2,420.4c-7.5-8.6-28.5-28-59.3-34c-31.5-6.1-41.2,10.4-44.2,16c-3,5.7,5.4,8.9,9.6,6.4
	c4-2.3,15.3-11.2,47.9-4c4.7,1,17.8,6.9,22.6,9.2c8.4,4,17.2,8.9,20.3,10.2C262.3,425.8,264.1,422.7,262.2,420.4z"/>
<path class="st5" d="M120.3,366.9c10,9.9,73.7,13.3,120.4-24.4c15.2-12.3,27.6-32.6,23.7-52.3c-4.2-21.6-39.8-39.4-44.6-39.6
	c-57.6,3.3-77,5.8-104,31.4c-17.2,16.3-21.4,42.4-17,62.5C99.9,349.4,116.3,363.4,120.3,366.9z"/>
<polygon class="st5" points="72.2,432.4 130.5,351.2 111,326.1 64.6,426.6 "/>
<path class="st5" d="M291.8,249.2L291.8,249.2c-0.2,0-0.4,0-0.6,0c-0.2,0-0.4,0-0.6,0v0c-103.2,0.1-117,6.6-117,6.6l70.2,84.3
	c0,0,18.2-22.2,48.3-22.2c30.1,0,48.3,22.2,48.3,22.2l70.2-84.3C410.6,255.8,395,249.3,291.8,249.2z"/>
<path class="st6" d="M367.6,258.2c-35.4-24.4-65.9-94.8-78.5-103.6c-20.9-14.7-31.2,36.5,3.3,76.9C245,219.5,190.9,235,161,263.7"/>
<path class="st7" d="M453.1,311.9c-2.3,18.7-26.5,26.1-57.2,22c-2.1-0.3-4.2-0.6-6.4-1c-2.5-0.5-5.1-1-7.6-1.6
	c-3.9-1-7.7-2.1-11.4-3.4c-0.6-0.2-1.3-0.5-1.9-0.7c-1.9-0.7-3.8-1.5-5.6-2.3c-21.1-9.3-36-24-34.4-38.6c1.5-14,17.4-20.8,38.2-21.7
	c9.2-0.4,19.4,0.4,29.7,2.3c0.8,0.1,1.6,0.3,2.3,0.5c3,0.6,5.8,1.3,8.6,2.2c3.7,1.1,7.2,2.4,10.5,3.8c4.4,1.9,8.5,4,12.2,6.3
	C445.3,289,454.4,301.5,453.1,311.9z"/>
<path class="st7" d="M202.7,331.5c-2.3,0.5-4.5,1-6.9,1.5c-3.6,0.7-7.1,1.1-10.5,1.5c-2.7,0.3-5.3,0.5-7.9,0.5
	c-1.4,0-2.8,0.1-4.2,0.1c-3.1,0-6.1-0.2-9-0.5c-18-1.9-30.4-9.5-32-22.6c-2-16.9,23-39,56.6-45c6-1.1,11.9-1.8,17.6-2.1
	c0.4,0,0.8,0,1.2-0.1c3.5-0.2,6.8-0.2,10.1-0.1c3.6,0.1,7.1,0.4,10.4,0.9c5.2,0.8,9.9,2,13.9,3.7c8.3,3.5,13.8,9.2,14.6,17.1
	C258.7,305.1,233.4,324.1,202.7,331.5z"/>
<path class="st7" d="M316.2,295.6c-7.2-1.9-15.3-3.3-23.9-3.3c-8.7,0.1-16.8,1.4-23.9,3.3c0.5-1.7,0.8-3.7,0.9-6
	c0.3-5.2-0.4-11-2.5-13.6c5.5-1.5,15.4-3.8,25.6-3.8c6.4,0,13,0.8,18.1,1.8c3.1,0.6,5.6,1.3,7.3,2
	C314.7,280.1,314.4,290.4,316.2,295.6z"/>
<path class="st1" d="M233.3,367.7c10,1.2,18.1,7.8,19.3,17.8c-21.2-13.3-40.1-9.4-36.9-12.2C217,372.1,223.3,366.5,233.3,367.7z"/>
<path class="st0" d="M339.5,367.6c-10.1,1.2-18.3,7.7-19.4,17.7c21.3-13.3,40.4-9.2,37.2-12C356,372.1,349.6,366.4,339.5,367.6z"/>
<path class="st8" d="M217.8,264.6L173.3,335c-3.1,0-6.1-0.2-9-0.5l43.4-69.8C211.1,264.5,214.5,264.5,217.8,264.6z"/>
<path class="st8" d="M242.1,269.2l-39.4,62.3c-2.3,0.5-4.5,1-6.9,1.5c-3.6,0.7-7.1,1.1-10.5,1.5l42.8-68.9
	C233.3,266.3,238,267.5,242.1,269.2z"/>
<path class="st8" d="M195.8,333c-6.4,1.2-12.6,1.8-18.4,2c-1.5-1.4-0.5-2.1,3.8-1.8c26.3,1.4,70.4-27.3,64.3-47.2
	c-6.1-19.8-38.5-19.5-44.4-19.3c0.9-0.6,2.8-1.2,5.4-1.9c26.5-1.6,48.5,4.9,50.2,21.5C258.9,306.5,229.5,326.9,195.8,333z"/>
<g>
	<path class="st4" d="M198,332.4c-7.6,1.7-15.4,2.7-23.2,3c-7.9,0.2-15.8-0.2-23.7-2.3c-3.9-1-7.8-2.5-11.5-4.5
		c-3.7-2.1-7.2-4.9-9.8-8.7c-1.3-1.9-2.3-4-3-6.3c-0.7-2.3-1-4.6-0.9-7c0.1-4.7,1.8-9.1,3.9-12.8c2.2-3.7,5-7,8.1-9.8
		c3.1-2.8,6.5-5.2,10-7.3c7-4.1,14.5-7.1,22.2-9.1c15.4-4.1,31.3-4.9,46.7-3.3c-15.4,1.7-30.6,4.2-44.9,9.3
		c-7.1,2.5-13.9,5.6-20.1,9.6c-3.1,2-6,4.2-8.6,6.6c-2.6,2.4-4.9,5.1-6.6,8c-3.5,5.8-4.2,12.5-0.6,17.8c1.7,2.7,4.2,4.9,7.1,6.9
		c3,1.9,6.3,3.4,9.7,4.6c3.5,1.2,7.1,2.1,10.8,2.8c3.7,0.7,7.5,1.2,11.3,1.6C182.5,332.3,190.2,332.4,198,332.4z"/>
</g>
<path class="st8" d="M407.5,269.5l-36.9,58.4c-2.6-0.9-5.1-1.9-7.5-3l35.8-57.6C401.8,267.9,404.7,268.7,407.5,269.5z"/>
<path class="st8" d="M430.2,279.6l-34.3,54.3c-2.1-0.3-4.2-0.6-6.4-1c-2.5-0.5-5.1-1-7.6-1.6l36.1-58
	C422.4,275.2,426.5,277.3,430.2,279.6z"/>
<path class="st8" d="M453.1,311.9c-2.3,18.7-26.5,26.1-57.2,22c-2.1-0.3-4.2-0.6-6.4-1c-2.5-0.5-5.1-1-7.6-1.6
	c-3.9-1-7.7-2.1-11.4-3.4c-0.6-0.2-1.3-0.5-1.9-0.7c0.8-0.5,2.5-0.7,5-0.6c45.1,3.2,72.8-7.1,66.7-27c-6.1-19.8-40.4-34.2-73.6-35.1
	c0.2-0.7,19.4,0.4,29.7,2.3c0.8,0.1,1.6,0.3,2.3,0.5c3,0.6,5.8,1.3,8.6,2.2c3.7,1.1,7.2,2.4,10.5,3.8c4.4,1.9,8.5,4,12.2,6.3
	C445.3,289,454.4,301.5,453.1,311.9z"/>
<g>
	<path class="st4" d="M417.2,334.8c-14.4,2-29.2,1.1-43.5-2.8c-7.1-2-14.1-4.6-20.7-8.3c-6.6-3.6-12.8-8.1-18-13.8
		c-2.6-2.9-5-6.1-6.7-9.7c-1.8-3.6-3-7.8-2.9-12.1c0.1-2.2,0.4-4.4,1.2-6.5c0.8-2.1,1.9-4,3.2-5.7c1.3-1.7,2.9-3.1,4.5-4.3
		c1.7-1.2,3.4-2.2,5.1-3.1c7.1-3.4,14.6-4.4,22-4.8c3.7-0.1,7.3-0.1,11,0.2c3.6,0.2,7.2,0.7,10.8,1.3c-7.2,0.6-14.4,1.1-21.3,2.5
		c-3.5,0.6-6.9,1.4-10.2,2.5c-3.3,1.1-6.4,2.3-9.3,4c-2.8,1.7-5.3,3.7-7,6.1c-0.8,1.2-1.4,2.5-1.9,3.8c-0.4,1.3-0.6,2.7-0.6,4.1
		c0,2.8,0.9,5.8,2.4,8.6c1.4,2.8,3.4,5.4,5.6,7.9c2.2,2.5,4.7,4.7,7.4,6.8c2.7,2.1,5.5,4,8.5,5.8c5.9,3.6,12.3,6.4,18.8,8.9
		C388.8,330.9,402.8,333.5,417.2,334.8z"/>
</g>
<g>
	<path class="st4" d="M258,308.5c-0.6,3.4-2,6.8-3.8,9.8c-1.8,3.1-4.1,5.8-6.6,8.4c-5,5.1-10.8,9.4-16.9,13
		c-6.1,3.6-12.6,6.6-19.3,9c-3.3,1.2-6.7,2.3-10.1,3.2c-3.4,0.9-6.9,1.7-10.4,2.4c-7,1.3-14.1,2-21.3,2c-7.2-0.1-14.4-0.9-21.4-3
		c-3.5-1.1-6.9-2.5-10.1-4.4c-3.2-1.9-6.1-4.2-8.6-6.9c-2.4-2.8-4.3-6-5.5-9.4c-1.2-3.4-1.7-6.9-1.6-10.4c0.8,3.4,2,6.6,3.7,9.5
		c1.7,2.9,3.8,5.5,6.2,7.5c4.9,4.2,11.1,6.6,17.5,8c6.4,1.4,13,1.8,19.7,1.5c3.3-0.1,6.7-0.3,10-0.7c3.3-0.4,6.6-0.9,9.9-1.5
		c6.6-1.2,13.1-2.9,19.5-4.9c6.4-2,12.7-4.5,18.8-7.4c6-2.9,11.9-6.2,17.2-10.3C250.3,319.8,255.1,314.9,258,308.5z"/>
</g>
<g>
	<path class="st4" d="M406.2,357.6c-8.4,1-17,0-25.2-2.2c-8.2-2.2-16.2-5.6-23.5-10c-7.3-4.4-14.1-10-19.6-16.6
		c-2.7-3.3-5.2-6.9-7.1-10.8c-1-1.9-1.8-3.9-2.4-6c-0.3-1-0.6-2.1-0.8-3.1c-0.2-1-0.4-2.1-0.5-3.1c4.2,7.3,9.5,13.3,15.4,18.7
		c5.9,5.3,12.4,10,19.2,14.1c6.8,4.1,14,7.8,21.4,10.9C390.5,352.7,398.1,355.3,406.2,357.6z"/>
</g>
<path class="st4" d="M310.4,274.1c-22.9,2.3-34.8,6.2-41.2,15.6c0.3-5.2-0.4-11-2.5-13.6c5.5-1.5,15.4-3.8,25.6-3.8
	C298.7,272.3,305.3,273,310.4,274.1z"/>
<path class="st4" d="M204.9,200L50.6,40.1c0,0,21.4,31.3,46,59.2S204.9,200,204.9,200z"/>
<path class="st4" d="M379.4,199.8L533.4,40.1c0,0-21.4,31.3-46,59.2S379.4,199.8,379.4,199.8z"/>
<path class="st4" d="M286.6,159.6c-1.2-1.5-8.6-6.9-10.8,9.1c-2.2,16.1,2.2,41.8,31.7,71.9C306.9,239.6,273.1,171.9,286.6,159.6z"/>
<path class="st4" d="M308,241.1c-48.7-18.5-105.4-3.2-123.5,11.9C199.4,249.5,250.6,229.7,308,241.1z"/>
<path class="st4" d="M277.3,461c1.4,2.2,2.3,2.9,2.9,3.6c-1-2.2,1.3-8.1,7.8-10.2C285.3,454.3,274.8,457.2,277.3,461z"/>
<path class="st4" d="M165.3,400.4c0,0,5.1-10.2,18.5-11.2s18,1.7,18,1.7S180,388.9,165.3,400.4z"/>
<path class="st4" d="M412.1,394.8c0,0-7.9-8.9-21.1-6.3c-13.2,2.6-17.9,5.2-17.9,5.2S394.8,387.8,412.1,394.8z"/>
<path class="st4" d="M119.7,366.2l-44.2,61.7c0,0,21.2,15.4,47.1,28.5c25.8,13.1,118.8,60.6,168.4,69.7
	c-9.1-0.9-178.3-93.3-184.1-104.7L119.7,366.2z"/>
</svg>
