<?xml version="1.0" encoding="UTF-8" standalone="no"?>
<!-- Generator: Adobe Illustrator 16.0.0, SVG Export Plug-In . SVG Version: 6.00 Build 0)  -->

<svg
   xmlns:dc="http://purl.org/dc/elements/1.1/"
   xmlns:cc="http://creativecommons.org/ns#"
   xmlns:rdf="http://www.w3.org/1999/02/22-rdf-syntax-ns#"
   xmlns:svg="http://www.w3.org/2000/svg"
   xmlns="http://www.w3.org/2000/svg"
   xmlns:sodipodi="http://sodipodi.sourceforge.net/DTD/sodipodi-0.dtd"
   xmlns:inkscape="http://www.inkscape.org/namespaces/inkscape"
   version="1.1"
   id="Layer_2"
   x="0px"
   y="0px"
   width="120.92399"
   height="129.16048"
   viewBox="0 0 120.92399 129.16047"
   enable-background="new 0 0 841.89 595.28"
   xml:space="preserve"
   inkscape:version="0.48.2 r9819"
   sodipodi:docname="Google Play logo.svg"><metadata
   id="metadata55"><rdf:RDF><cc:Work
       rdf:about=""><dc:format>image/svg+xml</dc:format><dc:type
         rdf:resource="http://purl.org/dc/dcmitype/StillImage" /><dc:title></dc:title></cc:Work></rdf:RDF></metadata><defs
   id="defs53" /><sodipodi:namedview
   pagecolor="#ffffff"
   bordercolor="#666666"
   borderopacity="1"
   objecttolerance="10"
   gridtolerance="10"
   guidetolerance="10"
   inkscape:pageopacity="0"
   inkscape:pageshadow="2"
   inkscape:window-width="1600"
   inkscape:window-height="837"
   id="namedview51"
   showgrid="false"
   fit-margin-top="0"
   fit-margin-left="0"
   fit-margin-right="0"
   fit-margin-bottom="0"
   inkscape:zoom="0.39645207"
   inkscape:cx="296.25001"
   inkscape:cy="38.121093"
   inkscape:window-x="-8"
   inkscape:window-y="-8"
   inkscape:window-maximized="1"
   inkscape:current-layer="Layer_2" />




<linearGradient
   id="SVGID_1_"
   gradientUnits="userSpaceOnUse"
   x1="226.8584"
   y1="284.50681"
   x2="210.5396"
   y2="252.47929"
   gradientTransform="translate(-124.695,-206.60063)">
	<stop
   offset="0"
   style="stop-color:#FCD08F"
   id="stop12" />
	<stop
   offset="1"
   style="stop-color:#F79673"
   id="stop14" />
</linearGradient>
<path
   d="m 89.178,84.522365 c 15.287,-8.367 26.962,-14.758 28.024,-15.34 3.168,-1.734 6.487,-6.159 0,-9.696 -2.085,-1.139 -13.446,-7.334 -28.042,-15.297 l -20.075,20.229 20.093,20.104 z"
   id="path16"
   inkscape:connector-curvature="0"
   style="fill:url(#SVGID_1_)" />
<linearGradient
   id="SVGID_2_"
   gradientUnits="userSpaceOnUse"
   x1="203.1299"
   y1="279.73831"
   x2="140.9948"
   y2="346.37"
   gradientTransform="translate(-124.695,-206.60063)">
	<stop
   offset="0"
   style="stop-color:#E74047"
   id="stop19" />
	<stop
   offset="1"
   style="stop-color:#7F50A0"
   id="stop21" />
</linearGradient>
<path
   d="M 69.084,64.418365 4.876,129.11637 c 1.45,0.184 3.194,-0.2 5.2,-1.298 4.153,-2.273 48.753,-26.686 79.102,-43.298005 l -20.094,-20.102 z"
   id="path23"
   inkscape:connector-curvature="0"
   style="fill:url(#SVGID_2_)" />
<linearGradient
   id="SVGID_3_"
   gradientUnits="userSpaceOnUse"
   x1="203.4604"
   y1="261.66989"
   x2="140.33949"
   y2="196.3062"
   gradientTransform="translate(-124.695,-206.60063)">
	<stop
   offset="0"
   style="stop-color:#E6FFAB"
   id="stop26" />
	<stop
   offset="1"
   style="stop-color:#47BEBC"
   id="stop28" />
</linearGradient>
<path
   d="m 69.084,64.418365 20.075,-20.229 c 0,0 -74.616,-40.7089996 -79.083,-43.1459996 C 8.359,0.10636546 6.487,-0.22063454 4.83,0.14836546 L 69.084,64.418365 z"
   id="path30"
   inkscape:connector-curvature="0"
   style="fill:url(#SVGID_3_)" />
<linearGradient
   id="SVGID_4_"
   gradientUnits="userSpaceOnUse"
   x1="159.23779"
   y1="335.7168"
   x2="159.23779"
   y2="206.7505"
   gradientTransform="translate(-124.695,-206.60063)">
	<stop
   offset="0"
   style="stop-color:#84E9DB"
   id="stop33" />
	<stop
   offset="1"
   style="stop-color:#197491"
   id="stop35" />
</linearGradient>
<path
   d="M 69.084,64.418365 4.829,0.14936546 C 2.175,0.74136546 0,3.0383654 0,7.6553654 0,15.155365 0,115.10837 0,121.40537 c 0,4.348 1.711,7.406 4.875,7.711 L 69.084,64.418365 z"
   id="path37"
   inkscape:connector-curvature="0"
   style="fill:url(#SVGID_4_)" />






</svg>