<svg width="50" height="50" xmlns="http://www.w3.org/2000/svg" version="1.1" class="shared-nav-ps-logo">

 <g>
  <title>Layer 1</title>
  <g id="svg_1">
   <g id="svg_2">
    <path id="svg_3" fill="#0070d1" d="m1.12236,35.92787c-1.86541,1.43715 -1.24361,4.16775 2.73593,5.46119c4.1039,1.58087 8.58089,2.01202 12.93351,1.14972c0.24872,0 0.49744,-0.14372 0.6218,-0.14372l0,-4.88632l-4.22826,1.58087c-1.61669,0.57486 -3.23338,0.71858 -4.85007,0.28743c-1.24361,-0.43115 -0.99489,-1.29344 0.49744,-2.01202l8.58089,-3.44917l0,-5.31747l-11.93862,4.74261c-1.49233,0.57486 -2.98466,1.43715 -4.35262,2.58688zm28.85168,-21.55731l0,13.9404c5.09879,2.87431 9.07833,0 9.07833,-7.4732c0,-7.61692 -2.36285,-11.06609 -9.20269,-13.79668c-3.60646,-1.43715 -7.33728,-2.73059 -11.0681,-3.59289l0,41.53376l8.70525,3.01802l0,-34.92285c0,-1.58087 0,-2.73059 0.99489,-2.29945c1.36797,0.43115 1.49233,2.01202 1.49233,3.59289zm16.16689,18.25186c-3.60646,-1.43715 -7.46164,-2.01202 -11.19246,-1.58087c-1.98977,0.14372 -3.85518,0.71858 -5.59623,1.43715l-0.37308,0.14372l0,5.6049l8.08344,-3.44917c1.61669,-0.57486 3.23338,-0.71858 4.85007,-0.28743c1.24361,0.43115 0.99489,1.29344 -0.49744,2.01202l-12.43607,5.31747l0,5.46119l17.16177,-7.32949c1.24361,-0.57486 2.36285,-1.29344 3.35774,-2.44316c0.87052,-1.43715 0.49744,-3.44917 -3.35774,-4.88632z"/>
   </g>
  </g>
 </g>
</svg>