<svg xmlns="http://www.w3.org/2000/svg" viewBox="0 0 512 512">
	<defs>
		<linearGradient y1="0" x1="0" y2="1" x2="1" id="main">
			<stop offset="0" stop-color="#ff5d00"/>
			<stop offset="0.75" stop-color="#5f00bf"/>
		</linearGradient>
		<linearGradient y1="0" x1="0" y2="1" x2="1" id="sky">
			<stop offset="0.25" stop-color="#ffdd3a"/>
			<stop offset="0.75" stop-color="#ffab00"/>
		</linearGradient>
	</defs>
	<path fill="url(#sky)" d="m32.59743,239.79656l94.7143,-166.49998l252.57146,0l94.71427,166.49998l-94.71427,166.49998l-252.57146,0l-94.7143,-166.49998z"/>
	<path fill="url(#main)" d="m17.09998,219.99999c-12.9,22.3 -12.9,49.7 0,72l88.3,152.9c12.9,22.3 36.6,36 62.4,36l176.5,0c25.7,0 49.5,-13.7 62.4,-36l88.2,-152.9c12.9,-22.3 12.9,-49.7 0,-72l-88.3,-152.9c-12.9,-22.3 -36.6,-36 -62.4,-36l-176.5,0c-25.7,0 -49.5,13.7 -62.4,36l-88.2,152.9zm41.6,48c-4.3,-7.4 -4.3,-16.6 0,-24l88.2,-152.9c4.3,-7.4 12.2,-12 20.8,-12l176.6,0c8.6,0 16.5,4.6 20.8,12l88.3,152.9c4.3,7.4 4.3,16.6 0,24l-34.5,59.8l-78.1,-94c-4.6,-5.5 -11.3,-8.7 -18.5,-8.7s-13.9,3.2 -18.5,8.7l-71.6,86.2l-38.9,-40.6c-4.6,-4.8 -11,-7.5 -17.6,-7.4s-13,2.9 -17.4,7.8l-56.9,62.3l-42.8,-74.1l0.1,0zm173.3,-108a40,40 0 1 0 -80,0a40,40 0 1 0 80,0z"/>
</svg>
