<svg xmlns="http://www.w3.org/2000/svg" viewBox="0 0 561.2 435"><path d="M141.6 402.8c0 3.1-.6 5-2 6.4a6.8 6.8 0 01-4.8 2c-3.1 0-5.1-1.8-7.2-5.1l-60.9-80.7v77.1c0 3.3-.2 4.4-1.2 6-1 1.6-2.9 2.7-5.2 2.7-2.3 0-4.2-1.1-5.2-2.7s-1.2-2.7-1.2-6V309c0-3.1.6-5 2-6.4 1.2-1.3 2.9-2 4.8-2 3.1 0 5 1.8 7.2 5.1l60.9 80.7V300c0-3.3.2-4.4 1.2-6s2.9-2.7 5.2-2.7c2.3 0 4.2 1.1 5.2 2.7s1.2 2.7 1.2 6v102.8zM192.6 310.7c-7.4 7.6-8.3 16.1-8.3 40.5s.9 32.9 8.3 40.5c5.4 5.6 12.4 8.5 20.5 8.5s15.1-2.9 20.5-8.5c7.4-7.6 8.3-16.1 8.3-40.5s-.9-32.9-8.3-40.5c0 0-3.2-4.4.3-8.1 3.6-3.8 8.8 0 8.8 0 11.2 11.2 12 21.4 12 48.7s-.8 37.4-12 48.7c-7.3 7.2-17.3 11.7-29.7 11.7-12.3 0-22.3-4.4-29.7-11.7-11.2-11.2-12-21.4-12-48.7s.8-37.4 12-48.7c0 0 5.2-4.4 8.9-.2 3.9 4 .4 8.3.4 8.3zM440.5 300.9c3.2 0 4.2.3 5.5 1 1.5 1 2.4 2.7 2.4 4.7s-.9 3.7-2.4 4.7c-1.2.7-2.3 1-5.5 1h-53.6v44.5h44.5c3.2 0 4.2.3 5.5 1 1.5 1 2.4 2.7 2.4 4.7s-.9 3.7-2.4 4.7c-1.2.8-2.3 1-5.5 1h-44.5v31.1h53.6c3.2 0 4.2.3 5.5 1 1.5 1 2.4 2.7 2.4 4.7s-.9 3.7-2.4 4.7c-1.2.8-2.3 1-5.5 1h-58.7c-2 0-4.2 0-6-1.8-1.7-1.7-1.7-4-1.7-6v-94.1c0-2 0-4.2 1.7-6 1.7-1.7 4-1.7 6-1.7h58.7zM475.8 408.8c-1.7-1.7-1.7-4-1.7-6v-93.6c0-3.3.2-4.4 1.2-6s2.9-2.7 5.2-2.7c2.3 0 4.2 1.1 5.2 2.7s1.2 2.7 1.2 6v90H540c3.2 0 4.2.3 5.5 1 1.5 1 2.4 2.7 2.4 4.7s-.9 3.7-2.4 4.7c-1.3.8-2.3 1-5.5 1h-58.2c-2-.1-4.3-.1-6-1.8zM318.7 404.3c-.8 2.3-1.7 4.2-2.7 5.2-1.4 1.3-2.7 1.7-4.3 1.7-1.7 0-3-.4-4.3-1.7-1-.9-1.9-2.8-2.7-5.2l-31.5-93.7c-.9-2.8-1.1-4.1-.7-5.7.6-2.5 3.3-4.3 6-4.3 1.2 0 2.6.4 3.5 1.3 1.2 1.1 1.8 2.2 2.7 4.9l27 81.9 27-81.9c.9-2.7 1.5-3.8 2.7-4.9.9-.8 2.2-1.3 3.5-1.3 2.7 0 5.4 1.8 6 4.3.3 1.6.2 2.9-.8 5.7l-31.4 93.7z"/><g><path d="M216.6 276.9c0 3.1-.6 5-2 6.4a6.8 6.8 0 01-4.8 2c-3.1 0-5.1-1.8-7.2-5.1l-60.9-71v118.4c0 3.3-.2 4.4-1.2 6-1 1.6-2.9 2.7-5.2 2.7-2.3 0-4.2-1.1-5.2-2.7s-1.2-2.7-1.2-6V194.8c0-3.1.6-5 2-6.4 1.2-1.2 2.9-2 4.8-2 3.1 0 5 1.8 7.2 5.1l60.9 72V195c0-3.3.2-4.4 1.2-6s2.9-2.7 5.2-2.7c2.3 0 4.2 1.1 5.2 2.7s1.2 2.7 1.2 6v81.9zM277.4 193c.9-2.4 1.6-3.5 2.5-4.6 1.2-1.3 2.7-2.1 4.7-2.1 2.1 0 3.6.8 4.7 2.1.9 1.1 1.6 2.1 2.5 4.6l31.9 82.2c1.2 3.2 1.9 6.1-.6 8.6-1.2 1.2-2.8 1.9-4.7 1.9-1.3 0-2.3-.4-3.2-1.1-1.3-1.1-1.9-2-3.1-5.1l-1.2-3.8h-52.7l-1.2 3.5c-1.2 3.1-1.7 4-3.1 5.1-.9.7-2 1.1-3.2 1.1-1.8 0-3.5-.8-4.7-1.9-2.5-2.5-1.7-5.4-.5-8.6l31.9-81.9zm-15.1 71.8H307l-22.3-58.1-22.4 58.1zM440.6 277.7c0 3.1-.6 5-2 6.4a6.8 6.8 0 01-4.8 2c-3.1 0-5.1-1.8-7.2-5.1l-60.9-71.8V277c0 3.3-.2 4.4-1.2 6-1 1.6-2.9 2.7-5.2 2.7-2.3 0-4.2-1.1-5.2-2.7s-1.2-2.7-1.2-6v-82.2c0-3.1.6-5 2-6.4 1.2-1.2 2.9-2 4.8-2 3.1 0 5 1.8 7.2 5.1l60.9 71.8V195c0-3.3.2-4.4 1.2-6s2.9-2.7 5.2-2.7c2.3 0 4.2 1.1 5.2 2.7s1.2 2.7 1.2 6v82.7zM487.7 277c0 3.3-.2 4.4-1.2 6-1 1.6-2.9 2.7-5.2 2.7-2.3 0-4.2-1.1-5.2-2.7s-1.2-2.7-1.2-6v-82c0-3.3.2-4.4 1.2-6 1-1.6 2.9-2.7 5.2-2.7 2.3 0 4.2 1.1 5.2 2.7s1.2 2.7 1.2 6v82z"/></g><g><path d="M240.8 187.1c3.4-2.6 6.7-5.2 9.9-8 3.1-2.8 6.2-5.7 8.5-8.7.6-.7 1.1-1.5 1.5-2.2.4-.7.7-1.3.8-1.5 0-.1 0 0 .1.5.1.4.6 1.1 1 1.4.4.3.6.2.5.2-.1 0-.3-.1-.6-.1-.6-.1-1.5 0-2.4.1-.9.1-1.9.3-2.8.5-1.9.4-3.9 1.1-5.9 1.7l-.2.1c-2.3.8-4.8-.4-5.6-2.7-.5-1.3-.2-2.7.5-3.8 2.4-3.8 4.8-7.6 7-11.5 1.1-1.9 2.1-3.9 3-5.8.9-1.9 1.7-3.9 2-5.5.1-.4.1-.7.1-.9 0-.2-.1-.2.2.2.1.2.3.4.6.5.1.1.2.1.3.1H259.2c-.6.1-1.5.4-2.4.7-.9.4-1.8.8-2.8 1.3-3.8 2-7.5 4.6-11.1 7.2-1.4 1.1-3.5.9-4.6-.6-.6-.7-.8-1.6-.7-2.5v-.2c.6-3.8.8-7.7.7-11.6 0-1.9-.2-3.8-.4-5.7-.2-1.8-.6-3.7-1.1-5.2-.3-.7-.6-1.4-.8-1.5-.1-.1-.1 0 .3.2s1.1.2 1.3.1c.3-.1.2-.1.1.1-.1.1-.3.3-.5.6-.4.5-.9 1.2-1.3 2-1.7 3.1-3.2 6.8-4.4 10.5-.9 2.3-3.4 3.4-5.7 2.6-1-.4-1.8-1.1-2.3-2-12-22.7-26.2-44.2-42.8-63.7-8.3-9.7-17.2-18.9-26.9-27.1-4.8-4.1-9.8-8-15.1-11.4-2.6-1.7-5.3-3.3-8-4.7-2.7-1.4-5.5-2.6-8-3.1-.6-.1-1.2-.2-1.6-.2-.4 0-.7.1-.4 0 .1-.1.4-.2.7-.6.2-.3.4-.7.4-.8 0-.3 0 0 .1.4s.3.9.6 1.5c.1.3.3.6.5.9l.6 1c.9 1.4 1.7 2.9 2.5 4.3 3.2 5.8 6.1 11.7 8.9 17.7 5.5 11.9 10.5 24 15.1 36.3 4.6 12.3 8.8 24.7 12.1 37.5.8 3.2 1.6 6.4 2.2 9.8.3 1.7.6 3.3.8 5 .2 1.7.4 3.4.5 5.4 0 4-1 7.9-2.8 11.4-1.8 3.5-4.4 6.6-7.7 8.9-3.3 2.3-7.3 3.8-11.4 3.9-2.1.1-4.1-.2-6-.6-1.9-.4-3.6-1-5.2-1.7-6.6-2.7-12.3-6.2-17.8-9.9-11-7.5-21.1-15.8-31.1-24.3-9.9-8.6-19.5-17.4-28.9-26.5-9.6-9-18.8-18.2-27.8-27.7l-3.4-3.6-.8-.9-.4-.5-.2-.3c-.3-.3-.6-.5-.6-.5s.1 0 .2.1c.2 0 .4 0 .6-.1.4-.1.3-.2.2 0-.3.4-.9 1.6-1.1 2.8-.6 2.5-.8 5.5-.8 8.5s.3 6.1.7 9.2c1.7 12.3 5.4 24.6 9.9 36.6s9.8 23.6 15.7 35c5.9 11.4 12.3 22.6 19 33.5 1.3 2.1.6 4.8-1.4 6-.8.5-1.8.7-2.7.6-5.4-.3-11.1-.5-16.4-.2-1.3.1-2.6.2-3.8.4-.6.1-1.2.2-1.6.3a4 4 0 00-.9.3s.1 0 .4-.3c.1-.1.3-.4.5-.7.2-.3.3-.8.4-1.2.1-.9-.2-1.5-.3-1.7-.1-.2-.1-.2-.1-.1.1.1.5.4.9.7.4.3.9.6 1.4.9 2.1 1.3 4.6 2.4 7 3.5 2.5 1.1 5.1 2.1 7.7 3.1 5.2 2 10.5 3.8 15.9 5.6 2.9 1 4.4 4 3.5 6.9-.6 1.8-2 3.1-3.7 3.5l-.2.1c-5.9 1.4-12 3.1-17.7 5-2.9 1-5.7 2-8.1 3.2-.6.3-1.1.6-1.6.9-.2.1-.4.3-.5.3-.1.1-.1.1 0-.1.1-.1.2-.3.4-.7.1-.4.2-1 .1-1.8-.1-.7-.4-1.3-.7-1.6-.2-.3-.5-.5-.6-.6-.2-.2-.2-.1-.1-.1.1.1.3.1.6.2 1 .3 2.4.6 3.8.8 1.4.2 2.9.4 4.4.5 3 .2 6.1.4 9.2.5 6.2.2 12.4.1 18.7 0 2.4 0 4.4 2 4.4 4.4 0 1.7-.9 3.1-2.3 3.9-2.6 1.4-5.2 2.9-7.7 4.5s-4.9 3.3-7 5.1c-1 .9-2 1.8-2.7 2.7-.4.4-.6.8-.8 1.2-.2.3-.2.5-.1.2.1-.2 0-.4 0-.7-.1-.3-.2-.6-.3-.8-.3-.4-.3-.3-.1-.3.5.2 1.7.5 2.9.6 2.5.2 5.4.1 8.2-.1 2.9-.2 5.8-.6 8.8-1.1 5.9-1 11.8-2.2 17.7-3.7 2-.5 4 .7 4.5 2.7s-.7 3.9-2.7 4.5l-.3.1c-6 1.6-12.1 3-18.2 4.1-3.1.6-6.2 1-9.4 1.3-3.2.3-6.4.5-9.8.2-1.7-.2-3.4-.4-5.4-1.3-1-.4-2-1.1-3-2.3-1-1.2-1.4-3-1.2-4.4.2-1.4.7-2.5 1.2-3.4.5-.9 1.1-1.7 1.7-2.4 1.2-1.4 2.4-2.6 3.7-3.7 5.1-4.4 10.5-7.7 16-10.9l2.1 8.3c-6.3.2-12.7.4-19.1.3-3.2 0-6.4-.1-9.7-.3-1.6-.1-3.3-.2-5-.5-1.7-.2-3.4-.5-5.4-1-.5-.1-1-.3-1.6-.6-.6-.3-1.2-.6-2-1.2-.4-.3-.8-.7-1.3-1.3-.4-.6-.9-1.5-1-2.5-.2-1 0-1.9.3-2.6.3-.7.6-1.2.8-1.6.6-.8 1.1-1.3 1.6-1.7.5-.4.9-.7 1.4-1 .9-.6 1.7-1 2.5-1.4 3.2-1.6 6.2-2.7 9.3-3.8 6.1-2.1 12.2-3.9 18.5-5.5l-.4 8.4c-5.5-1.7-10.9-3.5-16.4-5.5-2.7-1-5.4-2-8.2-3.2-2.7-1.2-5.5-2.4-8.3-4-.7-.4-1.4-.9-2.2-1.4-.8-.6-1.6-1.2-2.5-2.1-.4-.5-.9-1.1-1.4-2-.5-.9-1-2.3-.9-4.2.1-.9.4-1.8.8-2.6.4-.7.9-1.3 1.3-1.8.9-.9 1.6-1.3 2.3-1.7 1.3-.7 2.3-1 3.3-1.2.9-.3 1.8-.4 2.6-.6 1.7-.3 3.2-.5 4.8-.6 6.2-.5 11.9-.4 17.9-.1l-6.2 10c-6.9-11.2-13.4-22.6-19.4-34.3-6-11.7-11.5-23.8-16.2-36.2-2.3-6.2-4.5-12.6-6.3-19-1.8-6.5-3.3-13.1-4.2-19.9-.4-3.3-.8-6.8-.8-10.4 0-3.6.1-7.3 1.1-11.4.3-1 .6-2.1 1.1-3.2.5-1.1 1.1-2.3 2.1-3.6.5-.6 1.1-1.3 2-2 .8-.6 1.9-1.3 3.1-1.7 1.2-.4 2.6-.5 3.8-.4 1.2.1 2.4.5 3.3.9 1.8.8 3 1.9 3.9 2.8l.7.7.4.4.8.9 3.2 3.5c8.8 9.3 17.9 18.4 27.2 27.4 9.3 8.9 18.7 17.7 28.4 26.1 9.7 8.4 19.6 16.5 30 23.5 5.2 3.5 10.5 6.7 15.7 8.8 1.3.5 2.6.9 3.7 1.2 1.2.3 2.1.4 3.1.4 1.9-.1 3.8-.7 5.6-1.9 1.7-1.2 3.2-3 4.3-5 1-2 1.6-4.2 1.6-6.3v-.4-.5l-.1-1c0-.7-.2-1.4-.2-2.1-.2-1.5-.4-2.9-.7-4.4-.6-3-1.3-6-2.1-9.1-3.2-12.2-7.3-24.4-11.8-36.4-4.5-12-9.4-23.9-14.7-35.5-2.7-5.8-5.5-11.5-8.5-17-.8-1.4-1.5-2.7-2.3-4.1l-.6-1.1c-.3-.4-.5-.9-.8-1.4-.5-1-1-2-1.4-3.3-.2-.7-.4-1.4-.5-2.3-.1-.9-.1-1.9.1-3.1.2-1.2.8-2.7 1.7-3.9 1-1.2 2.2-2.1 3.4-2.6 1.1-.5 2.1-.7 3-.8.9-.1 1.6-.1 2.3-.1 1.4.1 2.5.2 3.6.5 2.1.5 3.9 1.1 5.7 1.8 1.7.7 3.4 1.5 4.9 2.3 3.2 1.6 6.1 3.4 9 5.3 5.7 3.8 11 7.9 16.1 12.2 10.2 8.7 19.5 18.3 28.1 28.3 17.2 20.2 31.8 42.4 44.1 65.7l-11.7.8c.8-2 1.7-3.9 2.7-5.9 1-2 2-4 3.4-6 .7-1 1.4-2.1 2.4-3.2.5-.6 1.1-1.1 1.9-1.7.8-.6 1.7-1.3 3.3-1.7.8-.2 1.7-.4 2.7-.3 1 0 2 .3 2.8.7 1.7.8 2.6 1.9 3.2 2.7 1.2 1.7 1.7 3.1 2.1 4.4.7 2.6 1 4.9 1.1 7.1.1 2.3.2 4.4.1 6.6-.2 4.3-.7 8.6-1.6 12.9l-7-4.3c3.7-2.8 7.4-5.7 11.7-8.2 1.1-.6 2.2-1.2 3.4-1.8 1.2-.6 2.5-1.1 4.3-1.5.9-.2 2-.3 3.5 0l1.2.3c.4.2.8.4 1.3.6.8.5 1.6 1.3 2.1 2.1 1 1.6 1.1 3 1.2 4 0 1.1 0 1.9-.2 2.7-.2 1.6-.6 2.9-1 4.1-.4 1.3-.9 2.4-1.3 3.6-1 2.3-2 4.4-3.1 6.6-2.1 4.2-4.4 8.3-6.8 12.3l-6.6-8c2.2-.7 4.5-1.3 6.9-1.7 1.2-.2 2.4-.4 3.7-.6 1.3-.1 2.6-.2 4.2-.1.8.1 1.6.2 2.5.4.9.3 2 .7 3.1 1.5 1.1.9 2 2.3 2.2 3.6.3 1.3.1 2.4-.1 3.3-.4 1.7-1.1 2.9-1.8 4.1-.7 1.1-1.4 2.1-2.2 3-3.1 3.7-6.5 6.6-10 9.5-3.5 2.8-7.1 5.4-10.8 7.9l-.4.3c-1.7 1.1-4 .7-5.1-1-1.4-1.7-1.1-3.9.5-5.1z"/><path d="M98.2 205.5c-3.3-1.6-6.6-3.2-9.9-5-1.6-.9-3.2-1.9-4.8-2.9-1.6-1-3.2-2.2-4.8-3.6-.8-.7-1.6-1.5-2.3-2.8-.4-.6-.7-1.4-.9-2.4-.2-1-.1-2.4.5-3.6.6-1.2 1.4-1.9 2.1-2.4.7-.5 1.4-.8 2-1.1 1.2-.5 2.3-.8 3.4-1 2.1-.4 4.1-.6 6-.8l2.8-.2c.4 0 .9-.1 1.2-.1.2 0 .3 0 .4-.1h-.1c-.1 0-.2 0-.5.1-.1 0-.2.1-.3.1-.1 0-.3.1-.5.3-.1.1-.2.1-.3.2-.2.1-.4.3-.6.5l-.3.3-.4.4c-.3.4-.5.8-.7 1.3l-.1.2 1.4 5.2-5.8-5.4c-2-1.9-3.9-3.8-5.8-5.7-3.8-3.9-7.5-7.9-11-12.1-3.5-4.2-6.8-8.7-9.6-13.5-2.8-4.8-5.3-10.1-6.2-16.1-.2-1.5.8-2.8 2.3-3.1 1.4-.2 2.7.7 3 2.1v.1c1.1 4.8 3.6 9.3 6.5 13.5 2.9 4.2 6.3 8.1 9.9 11.9 3.6 3.8 7.4 7.3 11.3 10.8l6 5.1 6.2 5c1.5 1.2 2.1 3.2 1.5 5l-.1.2-.1.2c-.2.5-.4.9-.7 1.3-.2.2-.3.4-.4.5l-.3.3c-.2.2-.4.4-.6.5-.1.1-.2.1-.4.2s-.5.3-.6.3c-.1.1-.3.1-.4.1-.4.1-.6.2-.8.2-.4.1-.6.1-.8.1h-5.2c-1.7 0-3.4.1-4.8.3-.7.1-1.3.2-1.7.4-.2.1-.3.1-.2.1.1 0 .4-.3.7-.9.4-.6.4-1.4.4-1.8l-.1-.4c.1.1.4.6.9 1.1.9 1 2.2 2 3.5 3 1.3 1 2.7 2 4.2 3 2.9 1.9 5.9 3.8 9 5.5 1.5.9 2.1 2.9 1.2 4.4-.8 1.5-2.7 2-4.2 1.3l-.1-.1zM173.9 87.7c3.2 4.3 6.3 8.8 9.1 13.4s5.3 9.5 7.5 14.6c2.1 5.1 3.9 10.3 5.2 15.7 1.2 5.4 1.9 11.1 1.9 16.7l-7.8-2.6c1.9-2.8 3.8-5.2 6.4-7.8.7-.6 1.4-1.3 2.4-2 .5-.3 1.1-.7 2-1 .2-.1.5-.1.8-.2l.4-.1h.5c.7 0 1.6.1 2.5.5.9.4 1.6 1 2 1.6.2.3.4.6.6.8.1.3.3.5.4.7.4.9.5 1.6.6 2.2.2 1.2.1 2.2.1 3.1-.3 3.6-1 6.7-1.7 9.8-.7 3.1-1.6 6.1-2.4 9.1-.5 1.9-2.5 2.9-4.4 2.4-1.9-.5-2.9-2.5-2.4-4.3v-.1c.8-2.9 1.6-5.9 2.3-8.8.7-2.9 1.3-5.9 1.4-8.6V141c0-.2-.1-.4-.1-.4v.1s.1.1.1.2c.1.1.3.3.6.5.3.1.6.2.7.2H202.9s-.2.1-.3.2c-.4.3-.9.7-1.3 1.1-1.9 1.9-3.8 4.3-5.4 6.7-.8 1.4-2.6 2-4.1 1.1-1-.5-1.5-1.5-1.5-2.5v-.5c-.1-5.1-.8-10.1-2-15.1-1.2-4.9-2.9-9.7-5-14.4-2.1-4.7-4.5-9.2-7.2-13.5-2.7-4.3-5.7-8.5-8.8-12.6-1.4-1.8-1-4.3.7-5.6 1.8-1.4 4.3-1 5.6.7l.3.5z"/></g></svg>